<?xml version="1.0" encoding="UTF-8" standalone="no"?>
<!DOCTYPE svg PUBLIC "-//W3C//DTD SVG 1.1//EN"
"http://www.w3.org/Graphics/SVG/1.1/DTD/svg11.dtd">


<!-- Page 1 -->
<svg x="0" y="0" width="1286" height="909" viewBox="0 0 1286 909" version="1.1" xmlns="http://www.w3.org/2000/svg" xmlns:xlink="http://www.w3.org/1999/xlink"
style="display: block;margin-left: auto;margin-right: auto;">
<defs>

<style type="text/css"><![CDATA[

.g5_1{
fill: #AAFFEE;
}
.g2_1{
fill: #CCCCCC;
}
.g3_1{
fill: #FFCCAA;
}
.g4_1{
fill: #AFE9C6;
}
.g6_1{
fill: #FFFF00;
stroke: #FF0000;
stroke-width: 4;
stroke-linecap: butt;
stroke-linejoin: miter;
stroke-miterlimit: 4;
}
.g1_1{
fill: #ECECEC;
}

.s2_1{
font-size: 44.31px;
font-family: Cabin-Bold_6;
fill: #000000;
}
.s1_1{
font-size: 30.56px;
font-family: Cabin-Regular_5;
fill: #000000;
}

]]></style>

</defs>
<path d="M0,0
L0,909
L1286,909
L1286,0 Z " 
fill="#FFFFFF" stroke="none" />
<path d="M123,15l1039,0l0,433L123,448L123,15Z" class="g1_1" />
<path d="M123,15l130,0l0,433l-130,0L123,15Z" class="g2_1" />
<path d="M360,99l737,0l0,303l-737,0L360,99Z" class="g3_1" />
<text 
x="307" 
y="127" 
dx="0,0,0" 
class="s1_1"
>id1</text>

<text 
x="304" 
y="194" 
dx="0,0,0" 
class="s1_1"
>id2</text>

<text 
x="301" 
y="402" 
dx="0,0,-0.4" 
class="s1_1"
>idN</text>

<text 
x="320" 
y="241" 
dx="0" 
class="s1_1"
>.</text>

<text 
x="320" 
y="288" 
dx="0" 
class="s1_1"
>.</text>

<text 
x="320" 
y="335" 
dx="0" 
class="s1_1"
>.</text>

<text 
x="359" 
y="81" 
dx="0,-0.3" 
class="s1_1"
>cc</text>

<text 
x="424" 
y="77" 
dx="0,0,0" 
class="s1_1"
>age</text>

<text 
x="506" 
y="81" 
dx="0,0,-0.2" 
class="s1_1"
>sex</text>

<text 
x="709" 
y="84" 
dx="0,0,0" 
class="s1_1"
>bmi</text>

<text 
x="585" 
y="74" 
dx="0" 
class="s1_1"
>.</text>

<text 
x="626" 
y="74" 
dx="0" 
class="s1_1"
>.</text>

<text 
x="668" 
y="74" 
dx="0" 
class="s1_1"
>.</text>

<text 
x="796" 
y="84" 
dx="0,0,0" 
class="s1_1"
>ft1</text>

<text 
x="862" 
y="84" 
dx="0,0,0" 
class="s1_1"
>ft2</text>

<text 
x="1059" 
y="84" 
dx="0,0,-0.2" 
class="s1_1"
>ftK</text>

<text 
x="934" 
y="74" 
dx="0" 
class="s1_1"
>.</text>

<text 
x="975" 
y="74" 
dx="0" 
class="s1_1"
>.</text>

<text 
x="1016" 
y="74" 
dx="0" 
class="s1_1"
>.</text>

<text 
transform="matrix(0, -1, 1, 0, 204, 335)"
dx="0,0,-0.4,0,0,-0.6,0,-0.3,0,0" 
class="s2_1"
>data.frame</text>

<path d="M123,463l1039,0l0,433L123,896l0,-433Z" class="g1_1" />
<path d="M123,463l130,0l0,433l-130,0l0,-433Z" class="g2_1" />
<path d="M750,551l347,0l0,217l-347,0l0,-217Z" class="g4_1" />
<text 
x="706" 
y="574" 
dx="0,0,0" 
class="s1_1"
>id1</text>

<text 
x="703" 
y="625" 
dx="0,0,0" 
class="s1_1"
>id2</text>

<text 
x="700" 
y="767" 
dx="0,0,-0.4" 
class="s1_1"
>idN</text>

<text 
x="719" 
y="686" 
dx="0" 
class="s1_1"
>.</text>

<text 
x="720" 
y="717" 
dx="0" 
class="s1_1"
>.</text>

<text 
x="719" 
y="656" 
dx="0" 
class="s1_1"
>.</text>

<text 
x="749" 
y="528" 
dx="0,-0.3" 
class="s1_1"
>cc</text>

<text 
x="805" 
y="525" 
dx="0,0,0" 
class="s1_1"
>age</text>

<text 
x="879" 
y="528" 
dx="0,0,-0.2" 
class="s1_1"
>sex</text>

<text 
x="1048" 
y="532" 
dx="0,0,0" 
class="s1_1"
>bmi</text>

<text 
x="982" 
y="522" 
dx="0" 
class="s1_1"
>.</text>

<text 
x="950" 
y="522" 
dx="0" 
class="s1_1"
>.</text>

<text 
x="1015" 
y="522" 
dx="0" 
class="s1_1"
>.</text>

<path d="M360,547l217,0l0,303l-217,0l0,-303Z" class="g5_1" />
<text 
x="358" 
y="532" 
dx="0,0,0,0,8,0,0" 
class="s1_1"
>id1 id2</text>

<text 
x="535" 
y="532" 
dx="0,0,-0.4" 
class="s1_1"
>idN</text>

<text 
x="465" 
y="522" 
dx="0,0,9.4,0,9.4" 
class="s1_1"
>. . .</text>

<text 
x="309" 
y="570" 
dx="0,0,0" 
class="s1_1"
>ft1</text>

<text 
x="306" 
y="639" 
dx="0,0,0" 
class="s1_1"
>ft2</text>

<text 
x="304" 
y="850" 
dx="0,0,-0.2" 
class="s1_1"
>ftK</text>

<text 
x="320" 
y="687" 
dx="0" 
class="s1_1"
>.</text>

<text 
x="320" 
y="734" 
dx="0" 
class="s1_1"
>.</text>

<text 
x="320" 
y="782" 
dx="0" 
class="s1_1"
>.</text>

<text 
transform="matrix(0, -1, 1, 0, 203, 723)"
dx="0,-0.5,0,0" 
class="s2_1"
>eSet</text>

<path d="M642.2,488.4c-16.1,-0.4,-27.7,7.3,-32.5,11.2l-3.3,-7.8l-18.9,24.8l31,3.9l-4.8,-11.3c7,-2.3,25.7,-7,43.7,1.3C673.7,518,681.1,528,684,533l-10.2,7.8l29.8,12.5l-4.1,-32.1l-8,6.1c-2.5,-9,-10.2,-28.1,-33.2,-36c-5.8,-2,-11.1,-2.8,-16.1,-2.9Z" class="g6_1" />


<!-- Any embedded fonts defined here -->
<style type="text/css" ><![CDATA[

@font-face {
	font-family: Cabin-Regular_5;
	src: url("fonts/Cabin-Regular_5.woff") format("woff");
}

@font-face {
	font-family: Cabin-Bold_6;
	src: url("fonts/Cabin-Bold_6.woff") format("woff");
}

]]></style>

</svg>
